{"title":"Case 39 (PSP + Ipod touch + Zune)","uid":5642322,"size":436181687,"categoryP":"video","categoryS":"handheld","magnet":"?xt=urn:btih:2af3ee3e58c5cb5b41ce3cc01065ef80d5983a8d&amp;dn=Case+39+%28PSP+%2B+Ipod+touch+%2B+Zune%29&amp;tr=udp%3A%2F%2Ftracker.openbittorrent.com%3A80&amp;tr=udp%3A%2F%2Fopen.demonii.com%3A1337&amp;tr=udp%3A%2F%2Ftracker.coppersurfer.tk%3A6969&amp;tr=udp%3A%2F%2Fexodus.desync.com%3A6969","seeders":0,"leechers":0,"uploader":"on.off.on","files":-1,"time":1277158757,"description":"Case 39\n\nsource:\n\nCase.39.2009.720p.BluRay.x264-BestHD &lt;a href=&quot;\nhttp://www.imdb.com/title/tt0795351/&quot; rel=&quot;nofollow&quot; target=&quot;_NEW&quot;&gt;\nhttp://www.imdb.com/title/tt0795351/&lt;/a&gt;\n\nID                               : 1\nFormat                           : AVC\nFormat/Info                      : Advanced Video Codec\nFormat profile                   : &lt;a class=&quot;__cf_email__&quot; href=&quot;/cdn-cgi/l/email-protection&quot; data-cfemail=&quot;36745745535a5f5853767a041806&quot;&gt;[email&amp;#160;protected]&lt;/a&gt;&lt;script cf-hash='f9e31' type=&quot;text/javascript&quot;&gt;\n/* &lt;![CDATA[ */!function(){try{var t=&quot;currentScript&quot;in document?document.currentScript:function(){for(var t=document.getElementsByTagName(&quot;script&quot;),e=t.length;e--;)if(t[e].getAttribute(&quot;cf-hash&quot;))return t[e]}();if(t&amp;&amp;t.previousSibling){var e,r,n,i,c=t.previousSibling,a=c.getAttribute(&quot;data-cfemail&quot;);if(a){for(e=&quot;&quot;,r=parseInt(a.substr(0,2),16),n=2;a.length-n;n+=2)i=parseInt(a.substr(n,2),16)^r,e+=String.fromCharCode(i);e=document.createTextNode(e),c.parentNode.replaceChild(e,c)}}}catch(u){}}();/* ]]&gt; */&lt;/script&gt;\nFormat settings, CABAC           : No\nFormat settings, ReFrames        : 3 frames\nCodec ID                         : avc1\nCodec ID/Info                    : Advanced Video Coding\nDuration                         : 1h 49mn\nBit rate mode                    : Variable\nBit rate                         : 400 Kbps\nWidth                            : 480 pixels\nHeight                           : 208 pixels\nDisplay aspect ratio             : 2.35:1\nFrame rate mode                  : Variable\nFrame rate                       : 23.976 fps\nMinimum frame rate               : 11.989 fps\nMaximum frame rate               : 23.981 fps\nColor space                      : YUV\nChroma subsampling               : 4:2:0\nBit depth                        : 8 bits\nScan type                        : Progressive\nBits/(Pixel*Frame)               : 0.167\nStream size                      : 313 MiB (75%)\nWriting library                  : x264 core 79\n\nID                               : 2\nFormat                           : AAC\nFormat/Info                      : Advanced Audio Codec\nFormat version                   : Version 4\nFormat profile                   : LC\nFormat settings, SBR             : No\nCodec ID                         : 40\nDuration                         : 1h 49mn\nBit rate mode                    : Variable\nBit rate                         : 128 Kbps\nMaximum bit rate                 : 191 Kbps\nChannel(s)                       : 2 channels\nChannel positions                : Front: L R\nSampling rate                    : 48.0 KHz\nStream size                      : 100 MiB (24%)\n &lt;a href=&quot;\nhttp://img716.imageshack.us/img716/6819/vlcsnap00001y.png&quot; rel=&quot;nofollow&quot; target=&quot;_NEW&quot;&gt;\nhttp://img716.imageshack.us/img716/6819/vlcsnap00001y.png&lt;/a&gt; &lt;a href=&quot;\nhttp://img199.imageshack.us/img199/2163/vlcsnap00002s.png&quot; rel=&quot;nofollow&quot; target=&quot;_NEW&quot;&gt;\nhttp://img199.imageshack.us/img199/2163/vlcsnap00002s.png&lt;/a&gt; &lt;a href=&quot;\nhttp://img444.imageshack.us/img444/5927/vlcsnap00003g.png&quot; rel=&quot;nofollow&quot; target=&quot;_NEW&quot;&gt;\nhttp://img444.imageshack.us/img444/5927/vlcsnap00003g.png&lt;/a&gt; &lt;a href=&quot;\nhttp://img72.imageshack.us/img72/9803/vlcsnap00004i.png&quot; rel=&quot;nofollow&quot; target=&quot;_NEW&quot;&gt;\nhttp://img72.imageshack.us/img72/9803/vlcsnap00004i.png&lt;/a&gt; &lt;a href=&quot;\nhttp://img441.imageshack.us/img441/8872/vlcsnap00005s.png&quot; rel=&quot;nofollow&quot; target=&quot;_NEW&quot;&gt;\nhttp://img441.imageshack.us/img441/8872/vlcsnap00005s.png&lt;/a&gt; &lt;a href=&quot;\nhttp://img688.imageshack.us/img688/8296/vlcsnap00006u.png&quot; rel=&quot;nofollow&quot; target=&quot;_NEW&quot;&gt;\nhttp://img688.imageshack.us/img688/8296/vlcsnap00006u.png&lt;/a&gt; &lt;a href=&quot;\nhttp://img149.imageshack.us/img149/1453/vlcsnap00007v.png&quot; rel=&quot;nofollow&quot; target=&quot;_NEW&quot;&gt;\nhttp://img149.imageshack.us/img149/1453/vlcsnap00007v.png&lt;/a&gt; &lt;a href=&quot;\nhttp://img820.imageshack.us/img820/2072/vlcsnap00008b.png&quot; rel=&quot;nofollow&quot; target=&quot;_NEW&quot;&gt;\nhttp://img820.imageshack.us/img820/2072/vlcsnap00008b.png&lt;/a&gt;\n\n\n\n\nPLEASE LET THE TORRENT SEED AND SHARE IT WITH ALL YOU KNOW!\n\nLet me know what I can do to be your trusted source of Handheld videos.\n\n\n\n\n\n-OOO \n\n\n\n\n","torrent":{"xt":"urn:btih:2af3ee3e58c5cb5b41ce3cc01065ef80d5983a8d","amp;dn":"Case+39+%28PSP+%2B+Ipod+touch+%2B+Zune%29","amp;tr":["udp%3A%2F%2Ftracker.openbittorrent.com%3A80","udp%3A%2F%2Fopen.demonii.com%3A1337","udp%3A%2F%2Ftracker.coppersurfer.tk%3A6969","udp%3A%2F%2Fexodus.desync.com%3A6969"],"infoHash":"2af3ee3e58c5cb5b41ce3cc01065ef80d5983a8d","infoHashBuffer":{"type":"Buffer","data":[42,243,238,62,88,197,203,91,65,206,60,192,16,101,239,128,213,152,58,141]},"announce":[],"urlList":[]}}